<?xml version="1.0" encoding="UTF-8"?>
<svg id="Capa_2" data-name="Capa 2" xmlns="http://www.w3.org/2000/svg" xmlns:xlink="http://www.w3.org/1999/xlink" viewBox="0 0 432 432">
  <defs>
    <style>
      .cls-1 {
        fill: none;
      }

      .cls-2 {
        fill: #fff;
        fill-rule: evenodd;
      }

      .cls-3 {
        clip-path: url(#clippath-1);
      }

      .cls-4 {
        fill: url(#Degradado_sin_nombre);
      }

      .cls-5 {
        clip-path: url(#clippath);
      }
    </style>
    <clipPath id="clippath">
      <rect class="cls-1" width="432" height="432"/>
    </clipPath>
    <clipPath id="clippath-1">
      <path class="cls-1" d="M432,322.38c0,2.36-.07,7.47-.22,11.46-.37,9.69-1.11,22.19-2.29,27.89-1.78,8.58-4.36,16.65-7.84,23.38-4.07,7.99-9.25,15.09-15.46,21.23-6.14,6.14-13.24,11.32-21.23,15.39-6.73,3.47-14.87,6.06-23.52,7.84-5.62,1.11-18.05,1.93-27.67,2.22-3.99.15-9.1.22-11.47.22H109.55c-2.36,0-7.47-.07-11.46-.22-9.69-.37-22.19-1.11-27.89-2.29-8.58-1.78-16.64-4.36-23.38-7.84-7.99-4.07-15.09-9.25-21.23-15.46-6.14-6.14-11.32-13.24-15.39-21.23-3.48-6.73-6.07-14.87-7.84-23.52-1.11-5.62-1.92-18.05-2.22-27.67-.07-3.92-.15-9.03-.15-11.39V109.62c0-2.36.07-7.47.22-11.46.37-9.69,1.11-22.19,2.29-27.89,1.78-8.58,4.36-16.65,7.84-23.38,4.07-7.99,9.25-15.09,15.39-21.23s13.24-11.32,21.23-15.39c6.73-3.47,14.86-6.06,23.52-7.84,5.62-1.11,18.05-1.93,27.67-2.22,3.99-.15,9.1-.22,11.46-.22h212.75c2.36,0,7.47.07,11.46.22,9.69.37,22.19,1.11,27.89,2.29,8.58,1.78,16.65,4.36,23.38,7.84,7.99,4.07,15.09,9.25,21.23,15.46,6.14,6.14,11.32,13.24,15.39,21.23,3.47,6.73,6.06,14.87,7.84,23.52,1.11,5.62,1.93,18.05,2.22,27.67.15,3.99.22,9.1.22,11.47v212.67Z"/>
    </clipPath>
    <linearGradient id="Degradado_sin_nombre" data-name="Degradado sin nombre" x1="-722.67" y1="553.82" x2="-722.67" y2="1137.82" gradientTransform="translate(750.58 841.67) scale(.74 -.74)" gradientUnits="userSpaceOnUse">
      <stop offset="0" stop-color="#25cf43"/>
      <stop offset=".02" stop-color="#25cf44"/>
      <stop offset=".03" stop-color="#26d044"/>
      <stop offset=".05" stop-color="#27d145"/>
      <stop offset=".06" stop-color="#28d246"/>
      <stop offset=".08" stop-color="#29d247"/>
      <stop offset=".09" stop-color="#2ad348"/>
      <stop offset=".11" stop-color="#2bd449"/>
      <stop offset=".12" stop-color="#2cd44a"/>
      <stop offset=".14" stop-color="#2dd54b"/>
      <stop offset=".16" stop-color="#2ed64c"/>
      <stop offset=".17" stop-color="#2fd74d"/>
      <stop offset=".19" stop-color="#30d74d"/>
      <stop offset=".2" stop-color="#31d84e"/>
      <stop offset=".22" stop-color="#32d94f"/>
      <stop offset=".23" stop-color="#33d950"/>
      <stop offset=".25" stop-color="#33da51"/>
      <stop offset=".27" stop-color="#34db52"/>
      <stop offset=".28" stop-color="#35dc53"/>
      <stop offset=".3" stop-color="#36dc54"/>
      <stop offset=".31" stop-color="#37dd55"/>
      <stop offset=".33" stop-color="#38de56"/>
      <stop offset=".34" stop-color="#39de57"/>
      <stop offset=".36" stop-color="#3adf57"/>
      <stop offset=".38" stop-color="#3be058"/>
      <stop offset=".39" stop-color="#3ce159"/>
      <stop offset=".41" stop-color="#3de15a"/>
      <stop offset=".42" stop-color="#3ee25b"/>
      <stop offset=".44" stop-color="#3fe35c"/>
      <stop offset=".45" stop-color="#40e35d"/>
      <stop offset=".47" stop-color="#41e45e"/>
      <stop offset=".48" stop-color="#42e55f"/>
      <stop offset=".5" stop-color="#42e660"/>
      <stop offset=".52" stop-color="#43e660"/>
      <stop offset=".53" stop-color="#44e761"/>
      <stop offset=".55" stop-color="#45e862"/>
      <stop offset=".56" stop-color="#46e963"/>
      <stop offset=".58" stop-color="#47e964"/>
      <stop offset=".59" stop-color="#48ea65"/>
      <stop offset=".61" stop-color="#49eb66"/>
      <stop offset=".62" stop-color="#4aeb67"/>
      <stop offset=".64" stop-color="#4bec68"/>
      <stop offset=".66" stop-color="#4ced69"/>
      <stop offset=".67" stop-color="#4dee6a"/>
      <stop offset=".69" stop-color="#4eee6a"/>
      <stop offset=".7" stop-color="#4fef6b"/>
      <stop offset=".72" stop-color="#50f06c"/>
      <stop offset=".73" stop-color="#51f06d"/>
      <stop offset=".75" stop-color="#51f16e"/>
      <stop offset=".77" stop-color="#52f26f"/>
      <stop offset=".78" stop-color="#53f370"/>
      <stop offset=".8" stop-color="#54f371"/>
      <stop offset=".81" stop-color="#55f472"/>
      <stop offset=".83" stop-color="#56f573"/>
      <stop offset=".84" stop-color="#57f573"/>
      <stop offset=".86" stop-color="#58f674"/>
      <stop offset=".88" stop-color="#59f775"/>
      <stop offset=".89" stop-color="#5af876"/>
      <stop offset=".91" stop-color="#5bf877"/>
      <stop offset=".92" stop-color="#5cf978"/>
      <stop offset=".94" stop-color="#5dfa79"/>
      <stop offset=".95" stop-color="#5efa7a"/>
      <stop offset=".97" stop-color="#5ffb7b"/>
      <stop offset=".98" stop-color="#5ffc7c"/>
      <stop offset="1" stop-color="#60fd7c"/>
    </linearGradient>
  </defs>
  <g id="Capa_1-2" data-name="Capa 1">
    <g>
      <g class="cls-5">
        <g class="cls-3">
          <path class="cls-4" d="M0,0v432h432V0H0Z"/>
        </g>
      </g>
      <path class="cls-2" d="M329.62,103.41c-29.07-29.07-67.76-45.12-108.96-45.12-84.92,0-153.94,69.09-154.01,153.94,0,27.15,7.1,53.63,20.56,76.93l-21.82,79.81,81.67-21.38c22.49,12.28,47.79,18.71,73.6,18.71h.07c84.85,0,153.94-69.09,154.01-153.94,0-41.2-16.05-79.89-45.13-108.96ZM220.73,340.28c-23.01,0-45.57-6.21-65.17-17.83l-4.66-2.74-48.45,12.72,12.94-47.19-3.03-4.81c-12.8-20.34-19.6-43.94-19.6-68.13,0-70.57,57.48-127.97,128.05-127.97,34.18,0,66.35,13.32,90.47,37.51,24.19,24.19,37.51,56.36,37.43,90.54-.07,70.49-57.48,127.9-127.97,127.9ZM290.93,244.48c-3.84-1.92-22.78-11.24-26.26-12.5-3.55-1.26-6.06-1.92-8.65,1.92-2.59,3.85-9.91,12.5-12.21,15.09-2.22,2.59-4.51,2.89-8.36.96-3.84-1.92-16.27-5.99-30.92-19.08-11.47-10.21-19.16-22.79-21.38-26.63-2.22-3.85-.22-5.92,1.7-7.84,1.7-1.7,3.84-4.51,5.77-6.73,1.93-2.22,2.59-3.85,3.85-6.44s.67-4.81-.3-6.73c-.96-1.93-8.66-20.86-11.83-28.56-3.11-7.47-6.29-6.51-8.66-6.58-2.22-.15-4.81-.15-7.4-.15s-6.73.96-10.28,4.81c-3.55,3.85-13.46,13.17-13.46,32.1s13.76,37.21,15.68,39.8c1.92,2.59,27.15,41.43,65.76,58.07,9.17,3.99,16.35,6.36,21.97,8.14,9.24,2.96,17.6,2.52,24.27,1.55,7.4-1.11,22.78-9.32,25.96-18.27,3.18-8.95,3.18-16.72,2.22-18.27-1.11-1.78-3.63-2.74-7.47-4.66Z"/>
    </g>
  </g>
</svg>